<svg width="240" height="278" viewBox="0 0 240 278" fill="none" xmlns="http://www.w3.org/2000/svg">
<g filter="url(#filter0_d_159_2456)">
<rect x="5" y="-0.000488281" width="230" height="262.667" rx="13.3333" fill="#9565D1"/>
</g>
<path d="M101.004 35.3335L113.758 52.0558H88.2503L101.004 35.3335Z" fill="white"/>
<rect x="96.7373" y="43.8669" width="8.25791" height="27.5264" fill="white"/>
<path d="M139.661 71.3931L152.415 54.6708H126.908L139.661 71.3931Z" fill="white"/>
<rect width="8.25791" height="27.5264" transform="matrix(1 0 0 -1 135.395 62.8599)" fill="white"/>
<mask id="mask0_159_2456" style="mask-type:alpha" maskUnits="userSpaceOnUse" x="115" y="129" width="34" height="35">
<mask id="mask1_159_2456" style="mask-type:alpha" maskUnits="userSpaceOnUse" x="108" y="127" width="41" height="44">
<rect width="26.4985" height="34.9704" transform="matrix(-0.882022 0.471208 0.471208 0.882022 131.871 127.136)" fill="#1A4E66"/>
</mask>
<g mask="url(#mask1_159_2456)">
<circle cx="132.437" cy="146.634" r="14.6975" stroke="#1A4E66" stroke-width="4.34982"/>
</g>
</mask>
<g mask="url(#mask0_159_2456)">
<path d="M145.618 148.303L122.534 153.518V130.971L114.174 134.422L111.413 144.929L114.174 163.028L134.038 170.161L149.069 164.562L145.618 148.303Z" fill="white"/>
</g>
<circle cx="95.7714" cy="97.1432" r="5.96962" fill="white"/>
<circle cx="134.435" cy="116.352" r="6.56658" fill="white"/>
<rect x="82.6377" y="104.307" width="26.2663" height="33.6687" rx="4.7757" fill="white"/>
<rect x="86.9795" y="127.619" width="7.40233" height="33.6687" rx="3.70117" fill="white"/>
<rect x="96.7695" y="127.619" width="7.40233" height="33.6687" rx="3.70117" fill="white"/>
<path d="M132.066 122.216L132.066 140.364" stroke="white" stroke-width="7.16355" stroke-linecap="square"/>
<path d="M143.093 141.539H130.913" stroke="white" stroke-width="4.7757" stroke-linecap="square"/>
<path d="M146.79 130.012H131.783V141.321H145.485L152.88 148.716L157.23 144.366" stroke="white" stroke-width="4.77611"/>
<rect x="75.0439" y="83.309" width="90.5763" height="88.5552" stroke="white" stroke-width="5.42373"/>
<path d="M67.372 198.496V203.936H73.772V206.416H67.372V212.096H74.572V214.576H64.332V196.016H74.572V198.496H67.372ZM80.5564 194.843V214.576H77.5164V194.843H80.5564ZM97.2143 206.869C97.2143 207.42 97.1788 207.918 97.1077 208.363H85.881C85.9699 209.536 86.4054 210.478 87.1877 211.189C87.9699 211.9 88.9299 212.256 90.0677 212.256C91.7032 212.256 92.8588 211.571 93.5343 210.203H96.8143C96.3699 211.554 95.561 212.665 94.3877 213.536C93.2321 214.389 91.7921 214.816 90.0677 214.816C88.6632 214.816 87.401 214.505 86.281 213.883C85.1788 213.243 84.3077 212.354 83.6677 211.216C83.0454 210.06 82.7343 208.727 82.7343 207.216C82.7343 205.705 83.0365 204.38 83.641 203.243C84.2632 202.087 85.1254 201.198 86.2277 200.576C87.3477 199.954 88.6277 199.643 90.0677 199.643C91.4543 199.643 92.6899 199.945 93.7743 200.549C94.8588 201.154 95.7032 202.007 96.3077 203.109C96.9121 204.194 97.2143 205.447 97.2143 206.869ZM94.041 205.909C94.0232 204.789 93.6232 203.891 92.841 203.216C92.0588 202.54 91.0899 202.203 89.9343 202.203C88.8854 202.203 87.9877 202.54 87.241 203.216C86.4943 203.874 86.0499 204.771 85.9077 205.909H94.041ZM105.086 211.856L109.246 199.883H112.473L106.873 214.576H103.246L97.6727 199.883H100.926L105.086 211.856ZM112.957 207.163C112.957 205.687 113.259 204.38 113.864 203.243C114.486 202.105 115.322 201.225 116.371 200.603C117.437 199.963 118.611 199.643 119.891 199.643C121.046 199.643 122.051 199.874 122.904 200.336C123.775 200.78 124.468 201.34 124.984 202.016V199.883H128.051V214.576H124.984V212.389C124.468 213.083 123.766 213.66 122.877 214.123C121.988 214.585 120.975 214.816 119.837 214.816C118.575 214.816 117.419 214.496 116.371 213.856C115.322 213.198 114.486 212.291 113.864 211.136C113.259 209.963 112.957 208.638 112.957 207.163ZM124.984 207.216C124.984 206.203 124.771 205.323 124.344 204.576C123.935 203.829 123.393 203.26 122.717 202.869C122.042 202.478 121.313 202.283 120.531 202.283C119.748 202.283 119.019 202.478 118.344 202.869C117.668 203.243 117.117 203.803 116.691 204.549C116.282 205.278 116.077 206.149 116.077 207.163C116.077 208.176 116.282 209.065 116.691 209.829C117.117 210.594 117.668 211.18 118.344 211.589C119.037 211.98 119.766 212.176 120.531 212.176C121.313 212.176 122.042 211.98 122.717 211.589C123.393 211.198 123.935 210.629 124.344 209.883C124.771 209.118 124.984 208.229 124.984 207.216ZM134.79 202.363V210.496C134.79 211.047 134.915 211.447 135.164 211.696C135.43 211.927 135.875 212.043 136.497 212.043H138.364V214.576H135.964C134.595 214.576 133.546 214.256 132.817 213.616C132.088 212.976 131.724 211.936 131.724 210.496V202.363H129.99V199.883H131.724V196.229H134.79V199.883H138.364V202.363H134.79ZM146.739 214.816C145.352 214.816 144.099 214.505 142.979 213.883C141.859 213.243 140.979 212.354 140.339 211.216C139.699 210.06 139.379 208.727 139.379 207.216C139.379 205.723 139.708 204.398 140.365 203.243C141.023 202.087 141.921 201.198 143.059 200.576C144.196 199.954 145.468 199.643 146.872 199.643C148.276 199.643 149.548 199.954 150.685 200.576C151.823 201.198 152.721 202.087 153.379 203.243C154.036 204.398 154.365 205.723 154.365 207.216C154.365 208.709 154.028 210.034 153.352 211.189C152.676 212.345 151.752 213.243 150.579 213.883C149.423 214.505 148.143 214.816 146.739 214.816ZM146.739 212.176C147.521 212.176 148.25 211.989 148.925 211.616C149.619 211.243 150.179 210.683 150.605 209.936C151.032 209.189 151.245 208.283 151.245 207.216C151.245 206.149 151.041 205.251 150.632 204.523C150.223 203.776 149.681 203.216 149.005 202.843C148.33 202.469 147.601 202.283 146.819 202.283C146.036 202.283 145.308 202.469 144.632 202.843C143.974 203.216 143.45 203.776 143.059 204.523C142.668 205.251 142.472 206.149 142.472 207.216C142.472 208.798 142.872 210.025 143.672 210.896C144.49 211.749 145.512 212.176 146.739 212.176ZM159.611 202.016C160.055 201.269 160.642 200.691 161.371 200.283C162.117 199.856 162.997 199.643 164.011 199.643V202.789H163.237C162.046 202.789 161.139 203.091 160.517 203.696C159.913 204.3 159.611 205.349 159.611 206.843V214.576H156.571V199.883H159.611V202.016ZM171.338 214.816C170.183 214.816 169.143 214.611 168.218 214.203C167.312 213.776 166.592 213.207 166.058 212.496C165.525 211.767 165.241 210.958 165.205 210.069H168.352C168.405 210.691 168.698 211.216 169.232 211.643C169.783 212.051 170.467 212.256 171.285 212.256C172.138 212.256 172.796 212.096 173.258 211.776C173.738 211.438 173.978 211.011 173.978 210.496C173.978 209.945 173.712 209.536 173.178 209.269C172.663 209.003 171.836 208.709 170.698 208.389C169.596 208.087 168.698 207.794 168.005 207.509C167.312 207.225 166.707 206.789 166.192 206.203C165.694 205.616 165.445 204.843 165.445 203.883C165.445 203.1 165.676 202.389 166.138 201.749C166.601 201.091 167.258 200.576 168.112 200.203C168.983 199.829 169.978 199.643 171.098 199.643C172.769 199.643 174.112 200.069 175.125 200.923C176.156 201.758 176.707 202.905 176.778 204.363H173.738C173.685 203.705 173.418 203.18 172.938 202.789C172.458 202.398 171.809 202.203 170.992 202.203C170.192 202.203 169.578 202.354 169.152 202.656C168.725 202.958 168.512 203.358 168.512 203.856C168.512 204.247 168.654 204.576 168.938 204.843C169.223 205.109 169.569 205.323 169.978 205.483C170.387 205.625 170.992 205.811 171.792 206.043C172.858 206.327 173.729 206.62 174.405 206.923C175.098 207.207 175.694 207.634 176.192 208.203C176.689 208.771 176.947 209.527 176.965 210.469C176.965 211.305 176.734 212.051 176.272 212.709C175.809 213.367 175.152 213.883 174.298 214.256C173.463 214.629 172.476 214.816 171.338 214.816Z" fill="white"/>
<defs>
<filter id="filter0_d_159_2456" x="0" y="-0.000488281" width="240" height="277.667" filterUnits="userSpaceOnUse" color-interpolation-filters="sRGB">
<feFlood flood-opacity="0" result="BackgroundImageFix"/>
<feColorMatrix in="SourceAlpha" type="matrix" values="0 0 0 0 0 0 0 0 0 0 0 0 0 0 0 0 0 0 127 0" result="hardAlpha"/>
<feOffset dy="10"/>
<feGaussianBlur stdDeviation="2.5"/>
<feComposite in2="hardAlpha" operator="out"/>
<feColorMatrix type="matrix" values="0 0 0 0 0.444742 0 0 0 0 0.250729 0 0 0 0 0.691667 0 0 0 0.5 0"/>
<feBlend mode="normal" in2="BackgroundImageFix" result="effect1_dropShadow_159_2456"/>
<feBlend mode="normal" in="SourceGraphic" in2="effect1_dropShadow_159_2456" result="shape"/>
</filter>
</defs>
</svg>
