<svg width="241" height="282" viewBox="0 0 241 282" fill="none" xmlns="http://www.w3.org/2000/svg">
<g filter="url(#filter0_d_159_2222)">
<path d="M5.31689 17.3548C5.31689 9.99103 11.2864 4.02148 18.6502 4.02148H221.984C229.347 4.02148 235.317 9.99102 235.317 17.3548V253.355C235.317 260.719 229.347 266.688 221.984 266.688H18.6502C11.2864 266.688 5.31689 260.719 5.31689 253.355V17.3548Z" fill="#9565D1"/>
</g>
<path d="M116.455 69.0366V105.004H56.1558M92.3587 69.0366H122.92M98.4708 69.0366V105.004" stroke="white" stroke-width="6.66667" stroke-linejoin="round"/>
<path d="M111.989 143.911H108.655C108.655 145.752 110.148 147.245 111.989 147.245V143.911ZM80.3697 130.276H83.7031C83.7031 128.745 82.6597 127.411 81.1735 127.041L80.3697 130.276ZM165.705 95.484H162.372C162.372 97.325 163.864 98.8173 165.705 98.8173V95.484ZM165.705 79.7334H169.038C169.038 77.8924 167.546 76.4001 165.705 76.4001V79.7334ZM150.072 79.7334V76.4001C148.231 76.4001 146.739 77.8924 146.739 79.7334H150.072ZM150.072 108.061H146.739C146.739 109.902 148.231 111.394 150.072 111.394V108.061ZM174.403 108.061L177.338 106.48C176.756 105.401 175.629 104.728 174.403 104.728V108.061ZM108.655 105.358V143.911H115.322V105.358H108.655ZM111.989 147.245H119.276V140.578H111.989V147.245ZM119.276 140.578H80.3697V147.245H119.276V140.578ZM80.3697 140.578H74.0225V147.245H80.3697V140.578ZM83.7031 143.911V130.276H77.0364V143.911H83.7031ZM81.1735 127.041C75.6805 125.677 64.5643 119.367 64.0715 105.241L57.4089 105.474C58.0446 123.695 72.4428 131.742 79.566 133.511L81.1735 127.041ZM185.922 92.1507H165.705V98.8173H185.922V92.1507ZM169.038 95.484V79.7334H162.372V95.484H169.038ZM165.705 76.4001H150.072V83.0667H165.705V76.4001ZM146.739 79.7334V108.061H153.405V79.7334H146.739ZM150.072 111.394H174.403V104.728H150.072V111.394ZM171.469 109.642L187.807 139.968L193.676 136.806L177.338 106.48L171.469 109.642Z" fill="white"/>
<circle cx="157.712" cy="61.0439" r="7.52268" stroke="white" stroke-width="4.70168"/>
<mask id="mask0_159_2222" style="mask-type:alpha" maskUnits="userSpaceOnUse" x="131" y="94" width="51" height="53">
<mask id="mask1_159_2222" style="mask-type:alpha" maskUnits="userSpaceOnUse" x="120" y="90" width="62" height="67">
<rect width="40.6124" height="53.5967" transform="matrix(-0.882022 0.471208 0.471208 0.882022 156.625 90.4297)" fill="#1A4E66"/>
</mask>
<g mask="url(#mask1_159_2222)">
<circle cx="157.492" cy="120.313" r="22.5259" stroke="#1A4E66" stroke-width="6.66667"/>
</g>
</mask>
<g mask="url(#mask0_159_2222)">
<path d="M177.694 122.871L142.314 130.864V96.3066L129.502 101.596L125.271 117.699L129.502 145.439L159.945 156.371L182.984 147.79L177.694 122.871Z" fill="white"/>
</g>
<path d="M71.0635 164.822V183.355H68.0235V164.822H71.0635ZM81.6681 168.422C82.8236 168.422 83.8548 168.662 84.7614 169.142C85.6859 169.622 86.4059 170.333 86.9214 171.275C87.437 172.217 87.6948 173.355 87.6948 174.688V183.355H84.6814V175.142C84.6814 173.826 84.3525 172.822 83.6948 172.128C83.037 171.417 82.1392 171.062 81.0014 171.062C79.8636 171.062 78.957 171.417 78.2814 172.128C77.6236 172.822 77.2948 173.826 77.2948 175.142V183.355H74.2548V168.662H77.2948V170.342C77.7925 169.737 78.4236 169.266 79.1881 168.928C79.9703 168.591 80.797 168.422 81.6681 168.422ZM89.7591 175.995C89.7591 174.484 90.0614 173.159 90.6658 172.022C91.288 170.866 92.1414 169.977 93.2258 169.355C94.3102 168.733 95.5547 168.422 96.9591 168.422C98.7369 168.422 100.204 168.848 101.359 169.702C102.532 170.537 103.324 171.737 103.732 173.302H100.452C100.186 172.573 99.7591 172.004 99.1725 171.595C98.5858 171.186 97.848 170.982 96.9591 170.982C95.7147 170.982 94.7191 171.426 93.9725 172.315C93.2436 173.186 92.8791 174.413 92.8791 175.995C92.8791 177.577 93.2436 178.813 93.9725 179.702C94.7191 180.591 95.7147 181.035 96.9591 181.035C98.7191 181.035 99.8836 180.262 100.452 178.715H103.732C103.306 180.208 102.506 181.399 101.332 182.288C100.159 183.159 98.7014 183.595 96.9591 183.595C95.5547 183.595 94.3102 183.284 93.2258 182.662C92.1414 182.022 91.288 181.133 90.6658 179.995C90.0614 178.839 89.7591 177.506 89.7591 175.995ZM109.002 163.622V183.355H105.962V163.622H109.002ZM125.5 168.662V183.355H122.46V181.622C121.98 182.226 121.349 182.706 120.567 183.062C119.802 183.399 118.984 183.568 118.113 183.568C116.958 183.568 115.918 183.328 114.993 182.848C114.087 182.368 113.367 181.657 112.833 180.715C112.318 179.773 112.06 178.635 112.06 177.302V168.662H115.073V176.848C115.073 178.164 115.402 179.177 116.06 179.888C116.718 180.582 117.616 180.928 118.753 180.928C119.891 180.928 120.789 180.582 121.447 179.888C122.122 179.177 122.46 178.164 122.46 176.848V168.662H125.5ZM134.044 183.595C132.889 183.595 131.849 183.391 130.924 182.982C130.018 182.555 129.298 181.986 128.764 181.275C128.231 180.546 127.947 179.737 127.911 178.848H131.058C131.111 179.471 131.404 179.995 131.938 180.422C132.489 180.831 133.173 181.035 133.991 181.035C134.844 181.035 135.502 180.875 135.964 180.555C136.444 180.217 136.684 179.791 136.684 179.275C136.684 178.724 136.418 178.315 135.884 178.048C135.369 177.782 134.542 177.488 133.404 177.168C132.302 176.866 131.404 176.573 130.711 176.288C130.018 176.004 129.413 175.568 128.898 174.982C128.4 174.395 128.151 173.622 128.151 172.662C128.151 171.879 128.382 171.168 128.844 170.528C129.307 169.871 129.964 169.355 130.818 168.982C131.689 168.608 132.684 168.422 133.804 168.422C135.475 168.422 136.818 168.848 137.831 169.702C138.862 170.537 139.413 171.684 139.484 173.142H136.444C136.391 172.484 136.124 171.959 135.644 171.568C135.164 171.177 134.515 170.982 133.698 170.982C132.898 170.982 132.284 171.133 131.858 171.435C131.431 171.737 131.218 172.137 131.218 172.635C131.218 173.026 131.36 173.355 131.644 173.622C131.929 173.888 132.275 174.102 132.684 174.262C133.093 174.404 133.698 174.591 134.498 174.822C135.564 175.106 136.435 175.399 137.111 175.702C137.804 175.986 138.4 176.413 138.898 176.982C139.395 177.551 139.653 178.306 139.671 179.248C139.671 180.084 139.44 180.831 138.978 181.488C138.515 182.146 137.858 182.662 137.004 183.035C136.169 183.408 135.182 183.595 134.044 183.595ZM143.702 166.715C143.151 166.715 142.689 166.528 142.316 166.155C141.942 165.782 141.756 165.319 141.756 164.768C141.756 164.217 141.942 163.755 142.316 163.382C142.689 163.008 143.151 162.822 143.702 162.822C144.236 162.822 144.689 163.008 145.062 163.382C145.436 163.755 145.622 164.217 145.622 164.768C145.622 165.319 145.436 165.782 145.062 166.155C144.689 166.528 144.236 166.715 143.702 166.715ZM145.196 168.662V183.355H142.156V168.662H145.196ZM154.067 180.635L158.227 168.662H161.454L155.854 183.355H152.227L146.654 168.662H149.907L154.067 180.635ZM176.418 175.648C176.418 176.199 176.383 176.697 176.312 177.142H165.085C165.174 178.315 165.609 179.257 166.392 179.968C167.174 180.679 168.134 181.035 169.272 181.035C170.907 181.035 172.063 180.351 172.738 178.982H176.018C175.574 180.333 174.765 181.444 173.592 182.315C172.436 183.168 170.996 183.595 169.272 183.595C167.867 183.595 166.605 183.284 165.485 182.662C164.383 182.022 163.512 181.133 162.872 179.995C162.249 178.839 161.938 177.506 161.938 175.995C161.938 174.484 162.241 173.159 162.845 172.022C163.467 170.866 164.329 169.977 165.432 169.355C166.552 168.733 167.832 168.422 169.272 168.422C170.658 168.422 171.894 168.724 172.978 169.328C174.063 169.933 174.907 170.786 175.512 171.888C176.116 172.973 176.418 174.226 176.418 175.648ZM173.245 174.688C173.227 173.568 172.827 172.671 172.045 171.995C171.263 171.319 170.294 170.982 169.138 170.982C168.089 170.982 167.192 171.319 166.445 171.995C165.698 172.653 165.254 173.551 165.112 174.688H173.245ZM76.1355 197.822L70.6421 216.355H67.2021L63.3088 202.328L59.1755 216.355L55.7621 216.382L50.5088 197.822H53.7355L57.5755 212.915L61.7355 197.822H65.1488L69.0155 212.835L72.8821 197.822H76.1355ZM76.8294 208.942C76.8294 207.466 77.1317 206.159 77.7361 205.022C78.3583 203.884 79.1939 203.004 80.2428 202.382C81.3094 201.742 82.4828 201.422 83.7628 201.422C84.9183 201.422 85.9228 201.653 86.7761 202.115C87.6472 202.559 88.3406 203.119 88.8561 203.795V201.662H91.9228V216.355H88.8561V214.168C88.3406 214.862 87.6383 215.439 86.7494 215.902C85.8606 216.364 84.8472 216.595 83.7094 216.595C82.4472 216.595 81.2917 216.275 80.2428 215.635C79.1939 214.977 78.3583 214.071 77.7361 212.915C77.1317 211.742 76.8294 210.417 76.8294 208.942ZM88.8561 208.995C88.8561 207.982 88.6428 207.102 88.2161 206.355C87.8072 205.608 87.265 205.039 86.5894 204.648C85.9139 204.257 85.185 204.062 84.4028 204.062C83.6206 204.062 82.8917 204.257 82.2161 204.648C81.5406 205.022 80.9894 205.582 80.5628 206.328C80.1539 207.057 79.9494 207.928 79.9494 208.942C79.9494 209.955 80.1539 210.844 80.5628 211.608C80.9894 212.373 81.5406 212.959 82.2161 213.368C82.9094 213.759 83.6383 213.955 84.4028 213.955C85.185 213.955 85.9139 213.759 86.5894 213.368C87.265 212.977 87.8072 212.408 88.2161 211.662C88.6428 210.897 88.8561 210.008 88.8561 208.995ZM100.449 216.595C99.2935 216.595 98.2535 216.391 97.329 215.982C96.4224 215.555 95.7024 214.986 95.169 214.275C94.6357 213.546 94.3512 212.737 94.3157 211.848H97.4624C97.5157 212.471 97.809 212.995 98.3424 213.422C98.8935 213.831 99.5779 214.035 100.396 214.035C101.249 214.035 101.907 213.875 102.369 213.555C102.849 213.217 103.089 212.791 103.089 212.275C103.089 211.724 102.822 211.315 102.289 211.048C101.773 210.782 100.947 210.488 99.809 210.168C98.7068 209.866 97.809 209.573 97.1157 209.288C96.4224 209.004 95.8179 208.568 95.3024 207.982C94.8046 207.395 94.5557 206.622 94.5557 205.662C94.5557 204.879 94.7868 204.168 95.249 203.528C95.7112 202.871 96.369 202.355 97.2224 201.982C98.0935 201.608 99.089 201.422 100.209 201.422C101.88 201.422 103.222 201.848 104.236 202.702C105.267 203.537 105.818 204.684 105.889 206.142H102.849C102.796 205.484 102.529 204.959 102.049 204.568C101.569 204.177 100.92 203.982 100.102 203.982C99.3024 203.982 98.689 204.133 98.2624 204.435C97.8357 204.737 97.6224 205.137 97.6224 205.635C97.6224 206.026 97.7646 206.355 98.049 206.622C98.3335 206.888 98.6801 207.102 99.089 207.262C99.4979 207.404 100.102 207.591 100.902 207.822C101.969 208.106 102.84 208.399 103.516 208.702C104.209 208.986 104.805 209.413 105.302 209.982C105.8 210.551 106.058 211.306 106.076 212.248C106.076 213.084 105.845 213.831 105.382 214.488C104.92 215.146 104.262 215.662 103.409 216.035C102.573 216.408 101.587 216.595 100.449 216.595ZM116.16 201.422C117.28 201.422 118.276 201.662 119.147 202.142C120.036 202.622 120.729 203.333 121.227 204.275C121.743 205.217 122 206.355 122 207.688V216.355H118.987V208.142C118.987 206.826 118.658 205.822 118 205.128C117.343 204.417 116.445 204.062 115.307 204.062C114.169 204.062 113.263 204.417 112.587 205.128C111.929 205.822 111.6 206.826 111.6 208.142V216.355H108.56V196.622H111.6V203.368C112.116 202.746 112.765 202.266 113.547 201.928C114.347 201.591 115.218 201.422 116.16 201.422ZM128.118 203.795C128.563 203.048 129.149 202.471 129.878 202.062C130.625 201.635 131.505 201.422 132.518 201.422V204.568H131.745C130.554 204.568 129.647 204.871 129.025 205.475C128.42 206.079 128.118 207.128 128.118 208.622V216.355H125.078V201.662H128.118V203.795ZM140.886 216.595C139.499 216.595 138.246 216.284 137.126 215.662C136.006 215.022 135.126 214.133 134.486 212.995C133.846 211.839 133.526 210.506 133.526 208.995C133.526 207.502 133.855 206.177 134.513 205.022C135.17 203.866 136.068 202.977 137.206 202.355C138.344 201.733 139.615 201.422 141.019 201.422C142.424 201.422 143.695 201.733 144.833 202.355C145.97 202.977 146.868 203.866 147.526 205.022C148.184 206.177 148.513 207.502 148.513 208.995C148.513 210.488 148.175 211.813 147.499 212.968C146.824 214.124 145.899 215.022 144.726 215.662C143.57 216.284 142.29 216.595 140.886 216.595ZM140.886 213.955C141.668 213.955 142.397 213.768 143.073 213.395C143.766 213.022 144.326 212.462 144.753 211.715C145.179 210.968 145.393 210.062 145.393 208.995C145.393 207.928 145.188 207.031 144.779 206.302C144.37 205.555 143.828 204.995 143.153 204.622C142.477 204.248 141.748 204.062 140.966 204.062C140.184 204.062 139.455 204.248 138.779 204.622C138.121 204.995 137.597 205.555 137.206 206.302C136.815 207.031 136.619 207.928 136.619 208.995C136.619 210.577 137.019 211.804 137.819 212.675C138.637 213.528 139.659 213.955 140.886 213.955ZM157.091 216.595C155.704 216.595 154.451 216.284 153.331 215.662C152.211 215.022 151.331 214.133 150.691 212.995C150.051 211.839 149.731 210.506 149.731 208.995C149.731 207.502 150.06 206.177 150.718 205.022C151.376 203.866 152.273 202.977 153.411 202.355C154.549 201.733 155.82 201.422 157.224 201.422C158.629 201.422 159.9 201.733 161.038 202.355C162.176 202.977 163.073 203.866 163.731 205.022C164.389 206.177 164.718 207.502 164.718 208.995C164.718 210.488 164.38 211.813 163.704 212.968C163.029 214.124 162.104 215.022 160.931 215.662C159.776 216.284 158.496 216.595 157.091 216.595ZM157.091 213.955C157.873 213.955 158.602 213.768 159.278 213.395C159.971 213.022 160.531 212.462 160.958 211.715C161.384 210.968 161.598 210.062 161.598 208.995C161.598 207.928 161.393 207.031 160.984 206.302C160.576 205.555 160.033 204.995 159.358 204.622C158.682 204.248 157.953 204.062 157.171 204.062C156.389 204.062 155.66 204.248 154.984 204.622C154.327 204.995 153.802 205.555 153.411 206.302C153.02 207.031 152.824 207.928 152.824 208.995C152.824 210.577 153.224 211.804 154.024 212.675C154.842 213.528 155.864 213.955 157.091 213.955ZM184.71 201.422C185.865 201.422 186.896 201.662 187.803 202.142C188.727 202.622 189.447 203.333 189.963 204.275C190.496 205.217 190.763 206.355 190.763 207.688V216.355H187.75V208.142C187.75 206.826 187.421 205.822 186.763 205.128C186.105 204.417 185.207 204.062 184.07 204.062C182.932 204.062 182.025 204.417 181.35 205.128C180.692 205.822 180.363 206.826 180.363 208.142V216.355H177.35V208.142C177.35 206.826 177.021 205.822 176.363 205.128C175.705 204.417 174.807 204.062 173.67 204.062C172.532 204.062 171.625 204.417 170.95 205.128C170.292 205.822 169.963 206.826 169.963 208.142V216.355H166.923V201.662H169.963V203.342C170.461 202.737 171.092 202.266 171.856 201.928C172.621 201.591 173.439 201.422 174.31 201.422C175.483 201.422 176.532 201.671 177.456 202.168C178.381 202.666 179.092 203.386 179.59 204.328C180.034 203.439 180.727 202.737 181.67 202.222C182.612 201.688 183.625 201.422 184.71 201.422Z" fill="white"/>
<defs>
<filter id="filter0_d_159_2222" x="0.316895" y="4.02148" width="240" height="277.667" filterUnits="userSpaceOnUse" color-interpolation-filters="sRGB">
<feFlood flood-opacity="0" result="BackgroundImageFix"/>
<feColorMatrix in="SourceAlpha" type="matrix" values="0 0 0 0 0 0 0 0 0 0 0 0 0 0 0 0 0 0 127 0" result="hardAlpha"/>
<feOffset dy="10"/>
<feGaussianBlur stdDeviation="2.5"/>
<feComposite in2="hardAlpha" operator="out"/>
<feColorMatrix type="matrix" values="0 0 0 0 0.444742 0 0 0 0 0.250729 0 0 0 0 0.691667 0 0 0 0.5 0"/>
<feBlend mode="normal" in2="BackgroundImageFix" result="effect1_dropShadow_159_2222"/>
<feBlend mode="normal" in="SourceGraphic" in2="effect1_dropShadow_159_2222" result="shape"/>
</filter>
</defs>
</svg>
