<svg width="240" height="278" viewBox="0 0 240 278" fill="none" xmlns="http://www.w3.org/2000/svg">
<g filter="url(#filter0_d_159_2588)">
<rect x="5" width="230" height="262.667" rx="13.3333" fill="#9565D1"/>
</g>
<path d="M58.0111 178.467V197H54.9711V184.307L49.3178 197H47.2111L41.5311 184.307V197H38.4911V178.467H41.7711L48.2778 193L54.7578 178.467H58.0111ZM62.7534 180.36C62.2023 180.36 61.7401 180.173 61.3668 179.8C60.9934 179.427 60.8068 178.964 60.8068 178.413C60.8068 177.862 60.9934 177.4 61.3668 177.027C61.7401 176.653 62.2023 176.467 62.7534 176.467C63.2868 176.467 63.7401 176.653 64.1134 177.027C64.4868 177.4 64.6734 177.862 64.6734 178.413C64.6734 178.964 64.4868 179.427 64.1134 179.8C63.7401 180.173 63.2868 180.36 62.7534 180.36ZM64.2468 182.307V197H61.2068V182.307H64.2468ZM66.4247 189.64C66.4247 188.129 66.7269 186.804 67.3313 185.667C67.9536 184.511 68.8069 183.622 69.8913 183C70.9758 182.378 72.2202 182.067 73.6247 182.067C75.4025 182.067 76.8691 182.493 78.0247 183.347C79.198 184.182 79.9891 185.382 80.398 186.947H77.118C76.8513 186.218 76.4247 185.649 75.838 185.24C75.2513 184.831 74.5136 184.627 73.6247 184.627C72.3802 184.627 71.3847 185.071 70.638 185.96C69.9091 186.831 69.5447 188.058 69.5447 189.64C69.5447 191.222 69.9091 192.458 70.638 193.347C71.3847 194.236 72.3802 194.68 73.6247 194.68C75.3847 194.68 76.5491 193.907 77.118 192.36H80.398C79.9713 193.853 79.1713 195.044 77.998 195.933C76.8247 196.804 75.3669 197.24 73.6247 197.24C72.2202 197.24 70.9758 196.929 69.8913 196.307C68.8069 195.667 67.9536 194.778 67.3313 193.64C66.7269 192.484 66.4247 191.151 66.4247 189.64ZM85.6676 184.44C86.112 183.693 86.6987 183.116 87.4276 182.707C88.1743 182.28 89.0543 182.067 90.0676 182.067V185.213H89.2943C88.1032 185.213 87.1965 185.516 86.5743 186.12C85.9698 186.724 85.6676 187.773 85.6676 189.267V197H82.6276V182.307H85.6676V184.44ZM98.4353 197.24C97.0486 197.24 95.7953 196.929 94.6753 196.307C93.5553 195.667 92.6753 194.778 92.0353 193.64C91.3953 192.484 91.0753 191.151 91.0753 189.64C91.0753 188.147 91.4042 186.822 92.062 185.667C92.7197 184.511 93.6175 183.622 94.7553 183C95.8931 182.378 97.1642 182.067 98.5686 182.067C99.9731 182.067 101.244 182.378 102.382 183C103.52 183.622 104.418 184.511 105.075 185.667C105.733 186.822 106.062 188.147 106.062 189.64C106.062 191.133 105.724 192.458 105.049 193.613C104.373 194.769 103.449 195.667 102.275 196.307C101.12 196.929 99.8397 197.24 98.4353 197.24ZM98.4353 194.6C99.2175 194.6 99.9464 194.413 100.622 194.04C101.315 193.667 101.875 193.107 102.302 192.36C102.729 191.613 102.942 190.707 102.942 189.64C102.942 188.573 102.738 187.676 102.329 186.947C101.92 186.2 101.378 185.64 100.702 185.267C100.026 184.893 99.2975 184.707 98.5153 184.707C97.7331 184.707 97.0042 184.893 96.3286 185.267C95.6709 185.64 95.1464 186.2 94.7553 186.947C94.3642 187.676 94.1686 188.573 94.1686 189.64C94.1686 191.222 94.5686 192.449 95.3686 193.32C96.1864 194.173 97.2086 194.6 98.4353 194.6ZM128.001 182.307L123.441 197H120.241L117.281 186.147L114.321 197H111.121L106.534 182.307H109.627L112.694 194.12L115.814 182.307H118.987L121.974 194.067L125.014 182.307H128.001ZM128.459 189.587C128.459 188.111 128.761 186.804 129.366 185.667C129.988 184.529 130.824 183.649 131.872 183.027C132.939 182.387 134.112 182.067 135.392 182.067C136.548 182.067 137.552 182.298 138.406 182.76C139.277 183.204 139.97 183.764 140.486 184.44V182.307H143.552V197H140.486V194.813C139.97 195.507 139.268 196.084 138.379 196.547C137.49 197.009 136.477 197.24 135.339 197.24C134.077 197.24 132.921 196.92 131.872 196.28C130.824 195.622 129.988 194.716 129.366 193.56C128.761 192.387 128.459 191.062 128.459 189.587ZM140.486 189.64C140.486 188.627 140.272 187.747 139.846 187C139.437 186.253 138.895 185.684 138.219 185.293C137.544 184.902 136.815 184.707 136.032 184.707C135.25 184.707 134.521 184.902 133.846 185.293C133.17 185.667 132.619 186.227 132.192 186.973C131.784 187.702 131.579 188.573 131.579 189.587C131.579 190.6 131.784 191.489 132.192 192.253C132.619 193.018 133.17 193.604 133.846 194.013C134.539 194.404 135.268 194.6 136.032 194.6C136.815 194.6 137.544 194.404 138.219 194.013C138.895 193.622 139.437 193.053 139.846 192.307C140.272 191.542 140.486 190.653 140.486 189.64ZM152.425 194.28L156.585 182.307H159.812L154.212 197H150.585L145.012 182.307H148.265L152.425 194.28ZM174.777 189.293C174.777 189.844 174.741 190.342 174.67 190.787H163.443C163.532 191.96 163.968 192.902 164.75 193.613C165.532 194.324 166.492 194.68 167.63 194.68C169.265 194.68 170.421 193.996 171.097 192.627H174.377C173.932 193.978 173.123 195.089 171.95 195.96C170.794 196.813 169.354 197.24 167.63 197.24C166.225 197.24 164.963 196.929 163.843 196.307C162.741 195.667 161.87 194.778 161.23 193.64C160.608 192.484 160.297 191.151 160.297 189.64C160.297 188.129 160.599 186.804 161.203 185.667C161.825 184.511 162.688 183.622 163.79 183C164.91 182.378 166.19 182.067 167.63 182.067C169.017 182.067 170.252 182.369 171.337 182.973C172.421 183.578 173.265 184.431 173.87 185.533C174.474 186.618 174.777 187.871 174.777 189.293ZM171.603 188.333C171.585 187.213 171.185 186.316 170.403 185.64C169.621 184.964 168.652 184.627 167.497 184.627C166.448 184.627 165.55 184.964 164.803 185.64C164.057 186.298 163.612 187.196 163.47 188.333H171.603ZM197.415 197L195.122 194.707C194.233 195.596 193.264 196.262 192.215 196.707C191.166 197.133 189.993 197.347 188.695 197.347C187.38 197.347 186.215 197.116 185.202 196.653C184.189 196.191 183.406 195.533 182.855 194.68C182.304 193.809 182.029 192.804 182.029 191.667C182.029 190.387 182.393 189.249 183.122 188.253C183.851 187.24 184.935 186.44 186.375 185.853C185.86 185.231 185.495 184.653 185.282 184.12C185.069 183.569 184.962 182.964 184.962 182.307C184.962 181.489 185.166 180.76 185.575 180.12C186.002 179.48 186.606 178.973 187.389 178.6C188.171 178.227 189.078 178.04 190.109 178.04C191.158 178.04 192.046 178.244 192.775 178.653C193.522 179.044 194.073 179.587 194.429 180.28C194.802 180.973 194.953 181.747 194.882 182.6H191.842C191.86 181.942 191.7 181.436 191.362 181.08C191.024 180.707 190.562 180.52 189.975 180.52C189.389 180.52 188.909 180.698 188.535 181.053C188.18 181.391 188.002 181.809 188.002 182.307C188.002 182.787 188.135 183.267 188.402 183.747C188.686 184.209 189.175 184.813 189.869 185.56L194.775 190.44L196.669 187.32H199.949L197.549 191.427L196.882 192.52L201.389 197H197.415ZM188.695 194.76C190.366 194.76 191.842 194.076 193.122 192.707L188.215 187.773C186.118 188.609 185.069 189.871 185.069 191.56C185.069 192.467 185.406 193.231 186.082 193.853C186.758 194.458 187.629 194.76 188.695 194.76ZM50.3516 211.467L44.8582 230H41.4182L37.5249 215.973L33.3916 230L29.9782 230.027L24.7249 211.467H27.9516L31.7916 226.56L35.9516 211.467H39.3649L43.2316 226.48L47.0982 211.467H50.3516ZM51.0455 222.587C51.0455 221.111 51.3477 219.804 51.9522 218.667C52.5744 217.529 53.41 216.649 54.4588 216.027C55.5255 215.387 56.6988 215.067 57.9788 215.067C59.1344 215.067 60.1388 215.298 60.9922 215.76C61.8633 216.204 62.5566 216.764 63.0722 217.44V215.307H66.1389V230H63.0722V227.813C62.5566 228.507 61.8544 229.084 60.9655 229.547C60.0766 230.009 59.0633 230.24 57.9255 230.24C56.6633 230.24 55.5077 229.92 54.4588 229.28C53.41 228.622 52.5744 227.716 51.9522 226.56C51.3477 225.387 51.0455 224.062 51.0455 222.587ZM63.0722 222.64C63.0722 221.627 62.8589 220.747 62.4322 220C62.0233 219.253 61.4811 218.684 60.8055 218.293C60.13 217.902 59.4011 217.707 58.6188 217.707C57.8366 217.707 57.1077 217.902 56.4322 218.293C55.7566 218.667 55.2055 219.227 54.7788 219.973C54.37 220.702 54.1655 221.573 54.1655 222.587C54.1655 223.6 54.37 224.489 54.7788 225.253C55.2055 226.018 55.7566 226.604 56.4322 227.013C57.1255 227.404 57.8544 227.6 58.6188 227.6C59.4011 227.6 60.13 227.404 60.8055 227.013C61.4811 226.622 62.0233 226.053 62.4322 225.307C62.8589 224.542 63.0722 223.653 63.0722 222.64ZM72.8784 217.787V225.92C72.8784 226.471 73.0029 226.871 73.2518 227.12C73.5184 227.351 73.9629 227.467 74.5851 227.467H76.4518V230H74.0518C72.6829 230 71.634 229.68 70.9051 229.04C70.1762 228.4 69.8118 227.36 69.8118 225.92V217.787H68.0784V215.307H69.8118V211.653H72.8784V215.307H76.4518V217.787H72.8784ZM91.9203 222.293C91.9203 222.844 91.8848 223.342 91.8136 223.787H80.587C80.6759 224.96 81.1114 225.902 81.8936 226.613C82.6759 227.324 83.6359 227.68 84.7736 227.68C86.4092 227.68 87.5648 226.996 88.2403 225.627H91.5203C91.0759 226.978 90.267 228.089 89.0936 228.96C87.9381 229.813 86.4981 230.24 84.7736 230.24C83.3692 230.24 82.107 229.929 80.987 229.307C79.8848 228.667 79.0136 227.778 78.3736 226.64C77.7514 225.484 77.4403 224.151 77.4403 222.64C77.4403 221.129 77.7425 219.804 78.347 218.667C78.9692 217.511 79.8314 216.622 80.9336 216C82.0536 215.378 83.3336 215.067 84.7736 215.067C86.1603 215.067 87.3959 215.369 88.4803 215.973C89.5648 216.578 90.4092 217.431 91.0136 218.533C91.6181 219.618 91.9203 220.871 91.9203 222.293ZM88.747 221.333C88.7292 220.213 88.3292 219.316 87.547 218.64C86.7648 217.964 85.7959 217.627 84.6403 217.627C83.5914 217.627 82.6936 217.964 81.947 218.64C81.2003 219.298 80.7559 220.196 80.6136 221.333H88.747ZM97.152 217.44C97.5964 216.693 98.1831 216.116 98.912 215.707C99.6586 215.28 100.539 215.067 101.552 215.067V218.213H100.779C99.5875 218.213 98.6809 218.516 98.0586 219.12C97.4542 219.724 97.152 220.773 97.152 222.267V230H94.112V215.307H97.152V217.44ZM120.58 211.467V213.947H112.713V219.413H118.847V221.893H112.713V230H109.673V211.467H120.58ZM128.971 230.24C127.584 230.24 126.331 229.929 125.211 229.307C124.091 228.667 123.211 227.778 122.571 226.64C121.931 225.484 121.611 224.151 121.611 222.64C121.611 221.147 121.94 219.822 122.597 218.667C123.255 217.511 124.153 216.622 125.291 216C126.429 215.378 127.7 215.067 129.104 215.067C130.509 215.067 131.78 215.378 132.917 216C134.055 216.622 134.953 217.511 135.611 218.667C136.269 219.822 136.597 221.147 136.597 222.64C136.597 224.133 136.26 225.458 135.584 226.613C134.909 227.769 133.984 228.667 132.811 229.307C131.655 229.929 130.375 230.24 128.971 230.24ZM128.971 227.6C129.753 227.6 130.482 227.413 131.157 227.04C131.851 226.667 132.411 226.107 132.837 225.36C133.264 224.613 133.477 223.707 133.477 222.64C133.477 221.573 133.273 220.676 132.864 219.947C132.455 219.2 131.913 218.64 131.237 218.267C130.562 217.893 129.833 217.707 129.051 217.707C128.269 217.707 127.54 217.893 126.864 218.267C126.206 218.64 125.682 219.2 125.291 219.947C124.9 220.676 124.704 221.573 124.704 222.64C124.704 224.222 125.104 225.449 125.904 226.32C126.722 227.173 127.744 227.6 128.971 227.6ZM152.109 215.307V230H149.069V228.267C148.589 228.871 147.958 229.351 147.176 229.707C146.412 230.044 145.594 230.213 144.723 230.213C143.567 230.213 142.527 229.973 141.603 229.493C140.696 229.013 139.976 228.302 139.443 227.36C138.927 226.418 138.669 225.28 138.669 223.947V215.307H141.683V223.493C141.683 224.809 142.012 225.822 142.669 226.533C143.327 227.227 144.225 227.573 145.363 227.573C146.5 227.573 147.398 227.227 148.056 226.533C148.732 225.822 149.069 224.809 149.069 223.493V215.307H152.109ZM162.734 215.067C163.889 215.067 164.92 215.307 165.827 215.787C166.751 216.267 167.471 216.978 167.987 217.92C168.503 218.862 168.76 220 168.76 221.333V230H165.747V221.787C165.747 220.471 165.418 219.467 164.76 218.773C164.103 218.062 163.205 217.707 162.067 217.707C160.929 217.707 160.023 218.062 159.347 218.773C158.689 219.467 158.36 220.471 158.36 221.787V230H155.32V215.307H158.36V216.987C158.858 216.382 159.489 215.911 160.254 215.573C161.036 215.236 161.863 215.067 162.734 215.067ZM175.385 217.787V225.92C175.385 226.471 175.509 226.871 175.758 227.12C176.025 227.351 176.469 227.467 177.091 227.467H178.958V230H176.558C175.189 230 174.14 229.68 173.411 229.04C172.682 228.4 172.318 227.36 172.318 225.92V217.787H170.585V215.307H172.318V211.653H175.385V215.307H178.958V217.787H175.385ZM179.947 222.587C179.947 221.111 180.249 219.804 180.853 218.667C181.475 217.529 182.311 216.649 183.36 216.027C184.427 215.387 185.6 215.067 186.88 215.067C188.035 215.067 189.04 215.298 189.893 215.76C190.764 216.204 191.458 216.764 191.973 217.44V215.307H195.04V230H191.973V227.813C191.458 228.507 190.755 229.084 189.867 229.547C188.978 230.009 187.964 230.24 186.827 230.24C185.564 230.24 184.409 229.92 183.36 229.28C182.311 228.622 181.475 227.716 180.853 226.56C180.249 225.387 179.947 224.062 179.947 222.587ZM191.973 222.64C191.973 221.627 191.76 220.747 191.333 220C190.924 219.253 190.382 218.684 189.707 218.293C189.031 217.902 188.302 217.707 187.52 217.707C186.738 217.707 186.009 217.902 185.333 218.293C184.658 218.667 184.107 219.227 183.68 219.973C183.271 220.702 183.067 221.573 183.067 222.587C183.067 223.6 183.271 224.489 183.68 225.253C184.107 226.018 184.658 226.604 185.333 227.013C186.027 227.404 186.755 227.6 187.52 227.6C188.302 227.6 189.031 227.404 189.707 227.013C190.382 226.622 190.924 226.053 191.333 225.307C191.76 224.542 191.973 223.653 191.973 222.64ZM199.78 213.36C199.228 213.36 198.766 213.173 198.393 212.8C198.02 212.427 197.833 211.964 197.833 211.413C197.833 210.862 198.02 210.4 198.393 210.027C198.766 209.653 199.228 209.467 199.78 209.467C200.313 209.467 200.766 209.653 201.14 210.027C201.513 210.4 201.7 210.862 201.7 211.413C201.7 211.964 201.513 212.427 201.14 212.8C200.766 213.173 200.313 213.36 199.78 213.36ZM201.273 215.307V230H198.233V215.307H201.273ZM211.877 215.067C213.033 215.067 214.064 215.307 214.971 215.787C215.895 216.267 216.615 216.978 217.131 217.92C217.646 218.862 217.904 220 217.904 221.333V230H214.891V221.787C214.891 220.471 214.562 219.467 213.904 218.773C213.246 218.062 212.349 217.707 211.211 217.707C210.073 217.707 209.166 218.062 208.491 218.773C207.833 219.467 207.504 220.471 207.504 221.787V230H204.464V215.307H207.504V216.987C208.002 216.382 208.633 215.911 209.397 215.573C210.18 215.236 211.006 215.067 211.877 215.067Z" fill="white"/>
<path d="M113.667 61.7402H68.7781C65.6792 61.7402 63.167 64.2524 63.167 67.3513V98.2125C63.167 101.311 65.6792 103.824 68.7781 103.824H113.667C116.766 103.824 119.278 101.311 119.278 98.2125V67.3513C119.278 64.2524 116.766 61.7402 113.667 61.7402Z" stroke="white" stroke-width="6.66667" stroke-linecap="round" stroke-linejoin="round"/>
<path d="M94.0276 72.9626H77.1942C75.6448 72.9626 74.3887 74.2187 74.3887 75.7682V89.796C74.3887 91.3454 75.6448 92.6015 77.1942 92.6015H94.0276C95.577 92.6015 96.8331 91.3454 96.8331 89.796V75.7682C96.8331 74.2187 95.577 72.9626 94.0276 72.9626Z" stroke="white" stroke-width="6.66667" stroke-linecap="round" stroke-linejoin="round"/>
<path d="M108.055 72.9626V92.6015M74.3887 103.824V109.435M108.055 103.824V109.435" stroke="white" stroke-width="6.66667" stroke-linecap="round" stroke-linejoin="round"/>
<path d="M171.318 114.981L152.606 115.392C152.331 116.15 151.997 116.892 151.605 117.619C151.212 118.349 150.73 118.971 150.158 119.484L153.348 149.186L172.06 148.775L173.942 118.962C173.347 118.411 172.838 117.797 172.414 117.117C171.991 116.438 171.626 115.726 171.318 114.981ZM151.314 100.394L150.443 104.545C150.862 105.037 151.238 105.561 151.572 106.117C151.904 106.673 152.194 107.262 152.441 107.882L171.153 107.471C171.372 106.841 171.637 106.24 171.946 105.67C172.253 105.099 172.605 104.559 173.002 104.05L171.95 99.9406L151.314 100.394ZM153.513 156.696C151.706 156.735 150.118 156.129 148.749 154.877C147.38 153.622 146.587 152.027 146.369 150.09L142.945 117.671C142.873 117.046 142.963 116.464 143.215 115.925C143.464 115.389 143.848 114.958 144.366 114.634C144.825 114.311 145.225 113.926 145.565 113.481C145.905 113.035 146.068 112.499 146.055 111.873C146.042 111.31 145.914 110.796 145.671 110.33C145.427 109.867 145.069 109.484 144.596 109.182C144.006 108.882 143.558 108.406 143.252 107.754C142.946 107.104 142.873 106.433 143.033 105.741L145.09 95.8347C145.246 94.9548 145.638 94.2574 146.269 93.7427C146.899 93.228 147.622 92.9616 148.438 92.9437L157.969 92.7344L157.887 88.9795L152.64 89.0947L152.475 81.585L169.963 81.2009L170.128 88.7106L164.882 88.8259L164.964 92.5807L174.495 92.3714C175.311 92.3535 176.03 92.5881 176.652 93.0753C177.277 93.5625 177.686 94.2422 177.88 95.1145L180.457 104.919C180.647 105.604 180.604 106.277 180.327 106.939C180.05 107.604 179.623 108.099 179.047 108.425C178.586 108.686 178.23 109.038 177.978 109.482C177.725 109.925 177.604 110.429 177.616 110.992C177.631 111.681 177.805 112.257 178.137 112.72C178.467 113.181 178.897 113.562 179.429 113.864C179.96 114.165 180.378 114.578 180.681 115.102C180.984 115.629 181.113 116.206 181.069 116.833L179.07 149.278C178.937 151.222 178.215 152.866 176.903 154.21C175.591 155.553 174.032 156.245 172.225 156.285L153.513 156.696Z" fill="white"/>
<line x1="96.4815" y1="146.265" x2="162.599" y2="59.853" stroke="white" stroke-width="2" stroke-linecap="round"/>
<defs>
<filter id="filter0_d_159_2588" x="0" y="0" width="240" height="277.667" filterUnits="userSpaceOnUse" color-interpolation-filters="sRGB">
<feFlood flood-opacity="0" result="BackgroundImageFix"/>
<feColorMatrix in="SourceAlpha" type="matrix" values="0 0 0 0 0 0 0 0 0 0 0 0 0 0 0 0 0 0 127 0" result="hardAlpha"/>
<feOffset dy="10"/>
<feGaussianBlur stdDeviation="2.5"/>
<feComposite in2="hardAlpha" operator="out"/>
<feColorMatrix type="matrix" values="0 0 0 0 0.444742 0 0 0 0 0.250729 0 0 0 0 0.691667 0 0 0 0.5 0"/>
<feBlend mode="normal" in2="BackgroundImageFix" result="effect1_dropShadow_159_2588"/>
<feBlend mode="normal" in="SourceGraphic" in2="effect1_dropShadow_159_2588" result="shape"/>
</filter>
</defs>
</svg>
